FFmpeg version SVN-r25716, Copyright (c) 2000-2010 the FFmpeg developers  built on Nov 10 2010 12:23:18 with gcc 4.1.2 20080704 (Red Hat 4.1.2-48)  configuration: --enable-libmp3lame --enable-shared --disable-mmx --arch=x86_64  libavutil     50.33. 0 / 50.33. 0  libavcore      0.12. 1 /  0.12. 1  libavcodec    52.94. 4 / 52.94. 4  libavformat   52.84. 0 / 52.84. 0  libavdevice   52. 2. 2 / 52. 2. 2  libavfilter    1.59. 0 /  1.59. 0  libswscale     0.12. 0 /  0.12. 0Seems stream 0 codec frame rate differs from container frame rate: 61440.00 (61440/1) -> 30.00 (30/1)Input #0, mov,mp4,m4a,3gp,3g2,mj2, from '/RAID10/data/converted_video_files/9776.mov':  Metadata:    major_brand     : qt      minor_version   : 537199360    compatible_brands: qt    Duration: 00:00:38.10, start: 0.000000, bitrate: 3136 kb/s    Stream #0.0(eng): Video: h264, yuv420p, 640x480, 3133 kb/s, 30 fps, 30 tbr, 30720 tbn, 61440 tbc[buffer @ 0xe5e1510] w:640 h:480 pixfmt:yuv420pOutput #0, flv, to '/RAID10/data/converted_video_files/9776.flv':  Metadata:    encoder         : Lavf52.84.0    Stream #0.0(eng): Video: flv, yuv420p, 640x480, q=2-31, 600 kb/s, 1k tbn, 24 tbcStream mapping:  Stream #0.0 -> #0.0Press [q] to stop encodingframe=   58 fps=  0 q=4.5 size=     462kB time=2.42 bitrate=1566.4kbits/s dup=0 drop=14    frame=  105 fps=103 q=18.4 size=     660kB time=4.38 bitrate=1235.3kbits/s dup=0 drop=26    frame=  150 fps= 98 q=26.2 size=     793kB time=6.25 bitrate=1039.1kbits/s dup=0 drop=37    frame=  197 fps= 97 q=17.6 size=     918kB time=8.21 bitrate= 916.0kbits/s dup=0 drop=49    frame=  244 fps= 96 q=13.2 size=    1048kB time=10.17 bitrate= 844.7kbits/s dup=0 drop=61    frame=  292 fps= 96 q=13.8 size=    1184kB time=12.17 bitrate= 797.4kbits/s dup=0 drop=72    frame=  341 fps= 96 q=12.8 size=    1324kB time=14.21 bitrate= 763.3kbits/s dup=0 drop=85    frame=  390 fps= 96 q=13.8 size=    1469kB time=16.25 bitrate= 740.5kbits/s dup=0 drop=97    frame=  439 fps= 96 q=15.2 size=    1613kB time=18.29 bitrate= 722.4kbits/s dup=0 drop=109    frame=  488 fps= 96 q=15.7 size=    1759kB time=20.33 bitrate= 708.8kbits/s dup=0 drop=121    frame=  538 fps= 97 q=17.2 size=    1907kB time=22.42 bitrate= 697.0kbits/s dup=0 drop=134    frame=  588 fps= 97 q=16.1 size=    2054kB time=24.50 bitrate= 686.9kbits/s dup=0 drop=147    frame=  639 fps= 97 q=15.0 size=    2226kB time=26.62 bitrate= 684.9kbits/s dup=0 drop=159    frame=  689 fps= 97 q=18.5 size=    2378kB time=28.71 bitrate= 678.5kbits/s dup=0 drop=172    frame=  740 fps= 97 q=17.6 size=    2527kB time=30.83 bitrate= 671.4kbits/s dup=0 drop=184    frame=  790 fps= 98 q=14.6 size=    2675kB time=32.92 bitrate= 665.7kbits/s dup=0 drop=197    frame=  840 fps= 98 q=14.4 size=    2824kB time=35.00 bitrate= 660.9kbits/s dup=0 drop=210    frame=  891 fps= 98 q=11.4 size=    2990kB time=37.12 bitrate= 659.8kbits/s dup=0 drop=222    frame=  915 fps= 98 q=10.4 Lsize=    3065kB time=38.12 bitrate= 658.5kbits/s dup=0 drop=228    video:3050kB audio:0kB global headers:0kB muxing overhead 0.475448%